<?xml version="1.0" encoding="iso-8859-1"?>
<!-- Uploaded to: SVG Repo, www.svgrepo.com, Generator: SVG Repo Mixer Tools -->
<svg height="800px" width="800px" version="1.1" id="Layer_1" xmlns="http://www.w3.org/2000/svg" xmlns:xlink="http://www.w3.org/1999/xlink" 
	 viewBox="0 0 512 512" xml:space="preserve">
<path style="fill:#A2CE86;" d="M187.378,95.078C150.21,67.82,101.256,61.769,59.616,79.283c-6.847,2.88-11.553,9.297-12.243,16.694
	c-4.194,44.977,16.289,89.851,53.456,117.11c23.089,16.933,50.725,25.683,78.333,25.683c16.833,0,33.656-3.254,49.428-9.887
	c6.847-2.88,11.553-9.297,12.243-16.694C245.028,167.211,224.545,122.336,187.378,95.078z"/>
<path style="fill:#007871;" d="M231.133,2.864c-6.373-3.818-14.329-3.818-20.702,0c-38.749,23.218-62.82,66.274-62.82,112.365
	s24.071,89.146,62.82,112.364c3.186,1.909,6.768,2.864,10.351,2.864c3.583,0,7.165-0.955,10.351-2.864
	c38.749-23.218,62.82-66.273,62.82-112.364S269.883,26.082,231.133,2.864z"/>
<g>
	<path style="fill:#489B6D;" d="M220.733,0c-3.303,0-7.14,0.955-10.327,2.864c-38.749,23.218-62.807,66.274-62.807,112.365
		s24.052,89.146,62.802,112.364c3.186,1.909,7.029,2.864,10.332,2.864V0z"/>
	<path style="fill:#489B6D;" d="M456.218,221.262l-146.731-73.071c-4.634-2.307-10.029-2.307-14.664,0l-146.625,73.071
		c-5.611,2.792-8.945,8.519-8.945,14.786v258.928c0,9.121,7.02,17.022,16.141,17.022h293.674c9.121,0,16.095-7.901,16.095-17.022
		V236.05C465.166,229.782,461.829,224.056,456.218,221.262z"/>
</g>
<path style="fill:#A2CE86;" d="M302.211,146.463c-2.202-0.009-5.053,0.568-7.387,1.73l-146.625,73.071
	c-5.611,2.792-8.945,8.519-8.945,14.786v258.928c0,9.121,7.02,17.022,16.141,17.022h146.814V147.088v-0.625H302.211z"/>
<path style="fill:#2A5637;" d="M325.333,384.278H280.19c-9.121,0-16.516,7.395-16.516,16.516V512h78.175V400.794
	C341.848,391.672,334.454,384.278,325.333,384.278z"/>
<path style="fill:#4E7F4B;" d="M302.211,384.278H280.19c-9.121,0-16.516,7.395-16.516,16.516V512h38.537V384.278z"/>
<path style="fill:#E56C1E;" d="M465.166,236.05c0-6.267-3.337-11.994-8.947-14.786l-146.731-73.071
	c-4.634-2.307-10.029-2.307-14.664,0L148.2,221.264c-5.611,2.792-8.945,8.519-8.945,14.786v50.235h325.911L465.166,236.05
	L465.166,236.05z"/>
<path style="fill:#F2BA57;" d="M302.209,146.463c-2.526-0.009-5.053,0.568-7.387,1.73l-146.623,73.071
	c-5.611,2.792-8.945,8.519-8.945,14.786v50.235h162.955L302.209,146.463z"/>
</svg>